<?xml version="1.0" encoding="utf-8"?>
<!-- Generator: Adobe Illustrator 22.1.0, SVG Export Plug-In . SVG Version: 6.00 Build 0)  -->
<svg version="1.1" id="Layer_1" xmlns="http://www.w3.org/2000/svg" xmlns:xlink="http://www.w3.org/1999/xlink" x="0px" y="0px"
	 viewBox="0 0 1921 784.9" style="enable-background:new 0 0 1921 784.9;" xml:space="preserve">
<style type="text/css">
	.st0{fill:#0182AC;}
	.st1{fill:none;}
	.st2{fill:none;stroke:#0182AC;}
	.st3{fill:#009BD4;}
	.st4{fill:#93CCDF;}
</style>
<g id="Art1" transform="translate(235.467 -1306.033)">
	<g id="Group_43">
		
			<rect id="Rectangle_3" x="1650" y="1822" transform="matrix(0.7071 -0.7071 0.7071 0.7071 -819.8198 1735.9337)" class="st0" width="71.1" height="71.1"/>
		<g id="Rectangle_5" transform="translate(1920.888 1990.419) rotate(45)">
			
				<rect x="-166.5" y="166.5" transform="matrix(2.535182e-06 1 -1 2.535182e-06 71.0983 332.9994)" class="st1" width="71.1" height="71.1"/>
			
				<rect x="-166" y="167" transform="matrix(2.535182e-06 1 -1 2.535182e-06 71.0983 332.9994)" class="st2" width="70.1" height="70.1"/>
		</g>
		
			<rect id="Rectangle_2" x="1508" y="1863.9" transform="matrix(0.7071 -0.7071 0.7071 0.7071 -911.5425 1697.4279)" class="st3" width="170.3" height="170.3"/>
	</g>
	<g id="Group_6">
		
			<rect id="Rectangle_2-2" x="-402" y="1375" transform="matrix(0.7071 -0.7071 0.7071 0.7071 -1158.9713 284.9948)" class="st3" width="333" height="333"/>
		
			<rect id="Rectangle_3-2" x="-62.7" y="1367.2" transform="matrix(0.7071 -0.7071 0.7071 0.7071 -1013.8874 425.617)" class="st0" width="139" height="139"/>
		
			<rect id="Rectangle_4" x="-62.7" y="1577.2" transform="matrix(0.7071 -0.7071 0.7071 0.7071 -1162.3798 487.1245)" class="st4" width="139" height="139"/>
		<g id="Rectangle_5-2" transform="translate(346.288 1443.391) rotate(45)">
			
				<rect x="-166.5" y="166.5" transform="matrix(2.535182e-06 1 -1 2.535182e-06 139.0002 332.9993)" class="st1" width="139" height="139"/>
			
				<rect x="-166" y="167" transform="matrix(2.535182e-06 1 -1 2.535182e-06 139.0002 332.9993)" class="st2" width="138" height="138"/>
		</g>
	</g>
</g>
</svg>
