<?xml version="1.0" encoding="utf-8"?>
<!-- Generator: Adobe Illustrator 22.1.0, SVG Export Plug-In . SVG Version: 6.00 Build 0)  -->
<svg version="1.1" id="Layer_1" xmlns="http://www.w3.org/2000/svg" xmlns:xlink="http://www.w3.org/1999/xlink" x="0px" y="0px"
	 viewBox="0 0 1193.6 862.5" style="enable-background:new 0 0 1193.6 862.5;" xml:space="preserve">
<style type="text/css">
	.st0{fill:none;}
	.st1{fill:none;stroke:#0182AC;}
	.st2{opacity:0.65;}
	.st3{fill:none;stroke:#009BD4;}
</style>
<g id="Group_3" transform="translate(-1504 -1990.419)">
	<g id="Rectangle_5" transform="translate(1920.888 1990.419) rotate(45)">
		
			<rect x="0" y="0" transform="matrix(2.535182e-06 1 -1 2.535182e-06 71.0979 -9.076384e-05)" class="st0" width="71.1" height="71.1"/>
		
			<rect x="0.5" y="0.5" transform="matrix(2.535182e-06 1 -1 2.535182e-06 71.0979 -9.076384e-05)" class="st1" width="70.1" height="70.1"/>
	</g>
	<g id="Rectangle_6" transform="translate(2100.798 2032.202) rotate(45)" class="st2">
		
			<rect x="0" y="0" transform="matrix(2.535182e-06 1 -1 2.535182e-06 843.9987 -1.069425e-03)" class="st0" width="844" height="844"/>
		
			<rect x="0.5" y="0.5" transform="matrix(2.535182e-06 1 -1 2.535182e-06 843.9987 -1.069425e-03)" class="st3" width="843" height="843"/>
	</g>
	<g id="Rectangle_7" transform="translate(2100.798 2084.202) rotate(45)" class="st2">
		
			<rect x="0" y="0" transform="matrix(2.535182e-06 1 -1 2.535182e-06 843.9987 -1.069425e-03)" class="st0" width="844" height="844"/>
		
			<rect x="0.5" y="0.5" transform="matrix(2.535182e-06 1 -1 2.535182e-06 843.9987 -1.069425e-03)" class="st3" width="843" height="843"/>
	</g>
	<g id="Rectangle_8" transform="translate(2100.798 2132.202) rotate(45)" class="st2">
		
			<rect x="0" y="0" transform="matrix(2.535182e-06 1 -1 2.535182e-06 843.9987 -1.069425e-03)" class="st0" width="844" height="844"/>
		
			<rect x="0.5" y="0.5" transform="matrix(2.535182e-06 1 -1 2.535182e-06 843.9987 -1.069425e-03)" class="st3" width="843" height="843"/>
	</g>
	<g id="Rectangle_9" transform="translate(2100.798 2184.202) rotate(45)" class="st2">
		
			<rect x="0" y="0" transform="matrix(2.535182e-06 1 -1 2.535182e-06 843.9987 -1.069425e-03)" class="st0" width="844" height="844"/>
		
			<rect x="0.5" y="0.5" transform="matrix(2.535182e-06 1 -1 2.535182e-06 843.9987 -1.069425e-03)" class="st3" width="843" height="843"/>
	</g>
</g>
</svg>
