<?xml version="1.0" encoding="utf-8"?>
<!-- Generator: Adobe Illustrator 22.1.0, SVG Export Plug-In . SVG Version: 6.00 Build 0)  -->
<svg version="1.1" id="Layer_1" xmlns="http://www.w3.org/2000/svg" xmlns:xlink="http://www.w3.org/1999/xlink" x="0px" y="0px"
	 viewBox="0 0 2119 270.8" style="enable-background:new 0 0 2119 270.8;" xml:space="preserve">
<style type="text/css">
	.st0{fill:#FFFFFF;}
	.st1{fill:none;}
	.st2{fill:none;stroke:#FFFFFF;}
</style>
<g id="CPRecs" transform="translate(194.866 -2767.199)">
	<g id="Group_24" transform="translate(-16 -3170)">
		
			<rect id="Rectangle_2" x="-271.4" y="5975.5" transform="matrix(0.7071 -0.7071 0.7071 0.7071 -4343.1709 1650.8226)" class="st0" width="185.1" height="185.1"/>
		
			<rect id="Rectangle_3" x="51.7" y="6080.5" transform="matrix(0.7071 -0.7071 0.7071 0.7071 -4292.7832 1837.6172)" class="st0" width="40.3" height="40.3"/>
		
			<rect id="Rectangle_17" x="-64.4" y="6016.5" transform="matrix(0.7071 -0.7071 0.7071 0.7071 -4281.5122 1736.8271)" class="st0" width="40.3" height="40.3"/>
		
			<rect id="Rectangle_4" x="-82.8" y="6087.9" transform="matrix(0.7071 -0.7071 0.7071 0.7071 -4345.0659 1763.1759)" class="st0" width="77.3" height="77.3"/>
		<g id="Rectangle_5" transform="translate(144.5 6013.549) rotate(45)">
			
				<rect x="-92.5" y="92.5" transform="matrix(2.535182e-06 1 -1 2.535182e-06 77.2631 185.0966)" class="st1" width="77.3" height="77.3"/>
			
				<rect x="-92" y="93" transform="matrix(2.535182e-06 1 -1 2.535182e-06 77.2631 185.0966)" class="st2" width="76.3" height="76.3"/>
		</g>
		<g id="Rectangle_15" transform="translate(286.5 6051.549) rotate(45)">
			
				<rect x="-92.5" y="92.5" transform="matrix(2.535182e-06 1 -1 2.535182e-06 32.2632 185.0967)" class="st1" width="32.3" height="32.3"/>
			
				<rect x="-92" y="93" transform="matrix(2.535182e-06 1 -1 2.535182e-06 32.2632 185.0967)" class="st2" width="31.3" height="31.3"/>
		</g>
		<g id="Rectangle_16" transform="translate(311.5 6076.549) rotate(45)">
			
				<rect x="-92.5" y="92.5" transform="matrix(2.535182e-06 1 -1 2.535182e-06 16.2632 185.0967)" class="st1" width="16.3" height="16.3"/>
			
				<rect x="-92" y="93" transform="matrix(2.535182e-06 1 -1 2.535182e-06 16.2632 185.0967)" class="st2" width="15.3" height="15.3"/>
		</g>
		
			<rect id="Rectangle_13" x="65.2" y="6003.9" transform="matrix(0.7071 -0.7071 0.7071 0.7071 -4242.3208 1843.2246)" class="st0" width="77.3" height="77.3"/>
	</g>
	<g id="Group_37" transform="translate(1684.067 2776.233)">
		<g id="Group_38">
			
				<rect id="Rectangle_2-2" x="147.6" y="38.3" transform="matrix(0.7071 -0.7071 0.7071 0.7071 -22.2255 208.1109)" class="st0" width="185.1" height="185.1"/>
			
				<rect id="Rectangle_3-2" x="-30.7" y="143.3" transform="matrix(0.7071 -0.7071 0.7071 0.7071 -118.6784 40.3971)" class="st0" width="40.3" height="40.3"/>
			
				<rect id="Rectangle_17-2" x="85.3" y="79.3" transform="matrix(0.7071 -0.7071 0.7071 0.7071 -39.4394 103.6968)" class="st0" width="40.3" height="40.3"/>
			
				<rect id="Rectangle_4-2" x="66.8" y="150.7" transform="matrix(0.7071 -0.7071 0.7071 0.7071 -103.0104 130.0048)" class="st0" width="77.3" height="77.3"/>
			<g id="Rectangle_5-2" transform="translate(233.133 130.983) rotate(135)">
				<rect x="92.5" y="92.5" class="st1" width="77.3" height="77.3"/>
				<rect x="93" y="93" class="st2" width="76.3" height="76.3"/>
			</g>
			<g id="Rectangle_15-2" transform="translate(59.313 137.163) rotate(135)">
				<rect x="92.5" y="92.5" class="st1" width="32.3" height="32.3"/>
				<rect x="93" y="93" class="st2" width="31.3" height="31.3"/>
			</g>
			<g id="Rectangle_16-2" transform="translate(22.999 150.85) rotate(135)">
				<rect x="92.5" y="92.5" class="st1" width="16.3" height="16.3"/>
				<rect x="93" y="93" class="st2" width="15.3" height="15.3"/>
			</g>
			
				<rect id="Rectangle_13-2" x="-81.2" y="66.7" transform="matrix(0.7071 -0.7071 0.7071 0.7071 -86.9617 0.75)" class="st0" width="77.3" height="77.3"/>
		</g>
	</g>
</g>
</svg>
