<?xml version="1.0" encoding="utf-8"?>
<!-- Generator: Adobe Illustrator 22.1.0, SVG Export Plug-In . SVG Version: 6.00 Build 0)  -->
<svg version="1.1" id="Layer_1" xmlns="http://www.w3.org/2000/svg" xmlns:xlink="http://www.w3.org/1999/xlink" x="0px" y="0px"
	 viewBox="0 0 655.9 342.1" style="enable-background:new 0 0 655.9 342.1;" xml:space="preserve">
<style type="text/css">
	.st0{fill:#009BD4;}
	.st1{fill:#0182AC;}
	.st2{fill:#93CCDF;}
	.st3{fill:none;}
	.st4{fill:none;stroke:#0182AC;}
	.st5{fill:none;stroke:#009BD4;}
	.st6{fill:none;stroke:#9DDDF2;}
</style>
<g id="Diamond_Group" transform="translate(156 -4222.199)">
	
		<rect id="Rectangle_2" x="207.9" y="4272.3" transform="matrix(0.7071 -0.7071 0.7071 0.7071 -3010.1838 1519.2628)" class="st0" width="241.9" height="241.9"/>
	
		<rect id="Rectangle_3" x="-25.1" y="4324.4" transform="matrix(0.7071 -0.7071 0.7071 0.7071 -3076.0339 1275.1494)" class="st1" width="52.6" height="52.6"/>
	
		<rect id="Rectangle_17" x="126.5" y="4408" transform="matrix(0.7071 -0.7071 0.7071 0.7071 -3090.7634 1406.8676)" class="st1" width="52.6" height="52.6"/>
	
		<rect id="Rectangle_4" x="102.3" y="4266.4" transform="matrix(0.7071 -0.7071 0.7071 0.7071 -3007.7087 1372.4336)" class="st2" width="101" height="101"/>
	<g id="Rectangle_5" transform="translate(266.594 4321.978) rotate(45)">
		
			<rect x="-134.1" y="133.7" transform="matrix(2.535182e-06 1 -1 2.535182e-06 100.6021 267.7404)" class="st3" width="101" height="101"/>
		
			<rect x="-133.6" y="134.2" transform="matrix(2.535182e-06 1 -1 2.535182e-06 100.6021 267.7404)" class="st4" width="100" height="100"/>
	</g>
	<g id="Rectangle_14" transform="translate(418.189 4405.616) rotate(45)">
		
			<rect x="-407.9" y="288.6" transform="matrix(2.535181e-06 1 -1 2.535181e-06 -77.1536 696.5153)" class="st3" width="42.2" height="42.2"/>
		
			<rect x="-407.4" y="289.1" transform="matrix(2.535181e-06 1 -1 2.535181e-06 -77.1536 696.5153)" class="st4" width="41.2" height="41.2"/>
	</g>
	<g id="Rectangle_15" transform="translate(452.167 4371.638) rotate(45)">
		
			<rect x="-407.9" y="384.7" transform="matrix(2.535181e-06 1 -1 2.535181e-06 18.9508 792.6194)" class="st3" width="42.2" height="42.2"/>
		
			<rect x="-407.4" y="385.2" transform="matrix(2.535181e-06 1 -1 2.535181e-06 18.9508 792.6194)" class="st5" width="41.2" height="41.2"/>
	</g>
	<g id="Rectangle_16" transform="translate(484.838 4404.31) rotate(45)">
		
			<rect x="-479.4" y="405.6" transform="matrix(2.535182e-06 1 -1 2.535182e-06 -52.549 885.0269)" class="st3" width="21.3" height="21.3"/>
		
			<rect x="-478.9" y="406.1" transform="matrix(2.535182e-06 1 -1 2.535182e-06 -52.549 885.0269)" class="st6" width="20.3" height="20.3"/>
	</g>
	
		<rect id="Rectangle_13" x="-91.1" y="4376.1" transform="matrix(0.7071 -0.7071 0.7071 0.7071 -3141.981 1267.8215)" class="st2" width="101" height="101"/>
</g>
</svg>
